<?xml version="1.0" standalone="no"?>
<!DOCTYPE svg PUBLIC "-//W3C//DTD SVG 20010904//EN"
 "http://www.w3.org/TR/2001/REC-SVG-20010904/DTD/svg10.dtd">
<svg version="1.0" xmlns="http://www.w3.org/2000/svg"
 width="632.000000pt" height="632.000000pt" viewBox="0 0 632.000000 632.000000"
 preserveAspectRatio="xMidYMid meet">
<metadata>
Created by potrace 1.14, written by Peter Selinger 2001-2017
</metadata>
<g transform="translate(0.000000,632.000000) scale(0.100000,-0.100000)"
fill="#000000" stroke="none">
<path d="M2207 5106 c108 -62 328 -242 484 -396 30 -30 131 -144 194 -219 11
-14 34 -41 50 -60 55 -64 122 -175 140 -229 9 -29 15 -55 13 -58 -3 -2 -58 -6
-124 -9 -143 -7 -187 -11 -262 -24 -79 -14 -119 -21 -177 -31 -27 -4 -102 -22
-165 -40 -63 -17 -126 -33 -139 -36 -55 -11 -263 -99 -346 -146 -179 -101
-208 -121 -194 -128 8 -5 49 -20 91 -34 218 -73 554 -261 684 -383 22 -21 98
-92 168 -158 71 -66 150 -142 176 -170 78 -81 182 -217 173 -226 -4 -4 -48
-13 -98 -19 -121 -15 -117 -15 -225 -48 -91 -27 -286 -119 -276 -129 2 -3 31
-7 63 -9 335 -23 580 -104 942 -311 26 -15 29 -23 34 -79 5 -72 34 -120 118
-199 120 -112 277 -213 466 -299 125 -58 238 -83 356 -80 90 2 101 -4 75 -38
-7 -9 -55 -31 -106 -48 l-93 -31 -92 50 c-51 27 -112 55 -136 62 l-44 13 -34
-40 c-72 -82 -97 -104 -104 -93 -13 22 -60 11 -128 -31 -39 -23 -74 -39 -79
-36 -9 5 -91 24 -182 41 -60 11 -263 14 -281 4 -17 -9 -89 -209 -89 -246 0
-11 243 -13 1425 -13 l1424 0 -24 26 c-13 14 -35 55 -50 92 -38 94 -42 98
-117 95 l-63 -3 -60 58 c-91 88 -153 131 -178 127 -12 -3 -43 -10 -68 -16 -46
-12 -48 -11 -107 27 l-60 39 -1 176 -1 175 128 38 c129 39 323 87 450 111 15
3 68 14 117 24 50 11 110 22 135 25 25 3 83 10 130 16 47 6 99 13 115 15 17 2
38 4 48 4 13 1 17 10 17 36 0 21 -5 35 -12 36 -21 1 -47 7 -147 32 l-94 24 79
26 c43 14 100 34 127 46 l47 20 0 643 0 643 -65 -1 c-35 0 -62 2 -60 6 3 4 33
13 67 20 35 7 59 14 53 16 -5 2 -61 -7 -123 -20 l-113 -24 -10 25 c-5 13 -9
29 -9 34 0 27 -73 225 -110 299 -86 172 -225 341 -318 389 -15 7 -36 21 -47
31 -30 25 -180 87 -257 106 -62 15 -67 18 -72 47 -3 18 -8 41 -10 52 -32 157
-49 244 -51 260 -2 11 -11 53 -19 93 -9 40 -16 75 -16 78 0 2 -189 4 -420 4
-329 0 -420 -3 -421 -12 0 -7 -3 -51 -5 -98 -2 -47 -6 -98 -8 -115 -2 -16 -4
-48 -5 -70 l-1 -40 -123 125 c-68 69 -145 144 -173 167 l-49 42 -895 0 -895 1
42 -24z"/>
<path d="M2153 3063 c9 -2 23 -2 30 0 6 3 -1 5 -18 5 -16 0 -22 -2 -12 -5z"/>
<path d="M2220 3053 c109 -19 270 -77 458 -164 46 -22 86 -39 89 -39 2 0 47
-21 99 -46 53 -25 97 -44 100 -42 4 4 -44 28 -251 124 -172 79 -244 108 -355
140 -63 19 -126 33 -140 33 l-25 -2 25 -4z"/>
</g>
</svg>
